<svg width="400" height="300" viewBox="0 0 400 300" xmlns="http://www.w3.org/2000/svg">
 <rect width="400" height="300" fill="#f0f0f0" />
  <circle cx="50" cy="150" r="15" fill="#4682B4" />
    <circle cx="90" cy="140" r="15" fill="#4682B4" />
    <circle cx="130" cy="160" r="15" fill="#4682B4"/>
  <circle cx="170" cy="130" r="15" fill="#4682B4" />
    <circle cx="210" cy="155" r="15" fill="#4682B4"/>
      <path d="M50 150 L90 140 L130 160 L170 130 L210 155" stroke="#4682B4" fill="none"/>
  <text x="40" y="190" font-size="14" fill="#4682B4">Robot Pose Nodes</text>

    <rect x="250" y="80" width="20" height="25" fill="#228B22" />
  <rect x="280" y="110" width="20" height="25" fill="#228B22" />
    <rect x="300" y="140" width="20" height="25" fill="#228B22" />
        <rect x="330" y="180" width="20" height="25" fill="#228B22" />
  <text x="250" y="70" font-size="12" fill="#228B22">Landmark Nodes</text>

    <line x1="50" y1="150" x2="90" y2="140" stroke="#A9A9A9"/>
    <line x1="130" y1="160" x2="170" y2="130" stroke="#A9A9A9"/>
    <line x1="50" y1="150" x2="250" y2="80" stroke="red"/>
    <line x1="90" y1="140" x2="280" y2="110" stroke="red"/>
        <line x1="170" y1="130" x2="300" y2="140" stroke="red"/>
        <line x1="210" y1="155" x2="330" y2="180" stroke="red"/>

  <text x="20" y="30" font-size="20" font-weight="bold">9. Graph Representation</text>
  <text x="20" y="55" font-size="14">SLAM can be represented as a graph.</text>
    <text x="20" y="75" font-size="12" fill="red">Red lines show measurements</text>
</svg>